<?xml version="1.0" encoding="utf-8"?>
<!-- Generator: Adobe Illustrator 21.0.0, SVG Export Plug-In . SVG Version: 6.00 Build 0)  -->
<svg version="1.1" id="Layer_1" xmlns="http://www.w3.org/2000/svg" xmlns:xlink="http://www.w3.org/1999/xlink" x="0px" y="0px"
	 viewBox="0 0 792 600" style="enable-background:new 0 0 792 600;" xml:space="preserve">
<style type="text/css">
	.st0{fill:#A29890;}
	.st1{fill:#EE8D3B;}
</style>
<path class="st0" d="M44.2,248.8v-24.1c6.2,5.5,12.6,9.6,19.2,12.4c6.6,2.8,13.4,4.1,20.5,4.1c9.7,0,16.5-2.5,20.4-7.6
	c3.8-5.1,5.8-14.5,5.8-28.3V120H71.1v-17.3h59.5v102.6c0,19.2-3.6,32.8-10.8,40.7c-7.2,8-19.2,11.9-36,11.9c-6.5,0-13-0.7-19.5-2.2
	C57.9,254.2,51.2,251.9,44.2,248.8z"/>
<path class="st0" d="M179,102.7h90.4V120h-69.8v41h66.7v17.3h-66.7v59.3h71.7V255H179V102.7z"/>
<path class="st0" d="M288.4,103.2h27.5l26.3,77.3l26.5-77.3h27.6V255h-19.1V120.8l-27.1,80h-15.6l-27.2-80V255h-19V103.2z"/>
<path class="st0" d="M414.2,103.2h27.5l26.3,77.3l26.5-77.3h27.6V255h-19.1V120.8l-27.1,80h-15.6l-27.2-80V255h-19V103.2z"/>
<path class="st0" d="M586.7,102.7h25L658.3,255H637l-11.2-39.7h-53.4l-11,39.7h-21.3L586.7,102.7z M599.1,120.8l-21.7,77.9h43.5
	L599.1,120.8z"/>
<path class="st0" d="M259.4,318.7h20.7v67.7l64.4-67.7h24.2l-59.3,62.2l61,90.1h-24.9l-49.7-76.3l-15.7,16.7V471h-20.7V318.7z"/>
<path class="st0" d="M371.2,318.7h20.1l14.6,123.7l17.3-81.8h21.5l17.5,82l14.6-123.9H497L474.3,471h-19.5l-20.7-90.5L413.5,471H394
	L371.2,318.7z"/>
<path class="st0" d="M547.4,318.7h25L619,471h-21.3l-11.2-39.7h-53.4l-11,39.7h-21.3L547.4,318.7z M559.9,336.8l-21.7,77.9h43.5
	L559.9,336.8z"/>
<path class="st0" d="M636.8,318.7h20.7v67.7l64.4-67.7h24.2l-59.3,62.2l61,90.1h-24.9l-49.7-76.3l-15.7,16.7V471h-20.7V318.7z"/>
<path class="st1" d="M36.6,238.9v-24.1c6.2,5.5,12.6,9.6,19.2,12.4c6.6,2.8,13.4,4.1,20.5,4.1c9.7,0,16.5-2.5,20.4-7.6
	c3.8-5.1,5.8-14.5,5.8-28.3v-85.3H63.6V92.8h59.5v102.6c0,19.2-3.6,32.8-10.8,40.7c-7.2,8-19.2,11.9-36,11.9c-6.5,0-13-0.7-19.5-2.2
	C50.4,244.4,43.7,242,36.6,238.9z"/>
<path class="st1" d="M171.4,92.8h90.4v17.3H192v41h66.7v17.3H192v59.3h71.7v17.3h-92.3V92.8z"/>
<path class="st1" d="M280.8,93.3h27.5l26.3,77.3l26.5-77.3h27.6v151.8h-19.1V111l-27.1,80H327l-27.2-80v134.2h-19V93.3z"/>
<path class="st1" d="M406.6,93.3h27.5l26.3,77.3L487,93.3h27.6v151.8h-19.1V111l-27.1,80h-15.6l-27.2-80v134.2h-19V93.3z"/>
<path class="st1" d="M579.1,92.8h25l46.6,152.3h-21.3l-11.2-39.7h-53.4l-11,39.7h-21.3L579.1,92.8z M591.6,111l-21.7,77.9h43.5
	L591.6,111z"/>
<path class="st1" d="M251.8,308.8h20.7v67.7l64.4-67.7h24.2L301.8,371l61,90.1h-24.9l-49.7-76.3l-15.7,16.7v59.6h-20.7V308.8z"/>
<path class="st1" d="M363.7,308.8h20.1l14.6,123.7l17.3-81.8h21.5l17.5,82l14.6-123.9h20.1l-22.8,152.3h-19.5l-20.7-90.5l-20.6,90.5
	h-19.5L363.7,308.8z"/>
<path class="st1" d="M539.9,308.8h25l46.6,152.3h-21.3l-11.2-39.7h-53.4l-11,39.7h-21.3L539.9,308.8z M552.3,327l-21.7,77.9H574
	L552.3,327z"/>
<path class="st1" d="M629.2,308.8h20.7v67.7l64.4-67.7h24.2L679.2,371l61,90.1h-24.9l-49.7-76.3l-15.7,16.7v59.6h-20.7V308.8z"/>
</svg>
