<svg id="Logo" xmlns="http://www.w3.org/2000/svg" viewBox="0 0 259.69 120.13"><title>Logo</title><g id="Name"><rect y="38.04" width="227.68" height="60.76" fill="#fed401"/><g opacity="0.69"><path d="M40.26,38.59A30.17,30.17,0,0,1,39,47.42a18.64,18.64,0,0,1-3.66,6.82,16.43,16.43,0,0,1-6.14,4.41,22.16,22.16,0,0,1-8.7,1.57A41.52,41.52,0,0,1,16.08,60a38.3,38.3,0,0,1-4.59-.79l.72-7.83A2.54,2.54,0,0,1,13,49.68a3,3,0,0,1,2-.64,8,8,0,0,1,1.67.22,11.23,11.23,0,0,0,2.38.22,9.79,9.79,0,0,0,3.4-.54,5.27,5.27,0,0,0,2.4-1.79,8.62,8.62,0,0,0,1.43-3.28,22.25,22.25,0,0,0,.48-5V1.67H40.26Z" transform="translate(0 -1.67)" fill="#999896"/><path d="M58.42,41.18q.6,5.17,3.14,7.49A9.34,9.34,0,0,0,68.12,51a11.74,11.74,0,0,0,3.7-.52,18.6,18.6,0,0,0,2.76-1.15l2.23-1.15a4.63,4.63,0,0,1,2.13-.52,2.55,2.55,0,0,1,2.23,1.07l3.58,4.41a18.32,18.32,0,0,1-4.11,3.56,21.37,21.37,0,0,1-4.53,2.15,24.57,24.57,0,0,1-4.65,1.07,34.89,34.89,0,0,1-4.43.3,23.15,23.15,0,0,1-8.13-1.41,18.67,18.67,0,0,1-6.64-4.19,19.77,19.77,0,0,1-4.49-6.92,25.84,25.84,0,0,1-1.65-9.62,21.76,21.76,0,0,1,1.41-7.83A19,19,0,0,1,58,19.36a22.81,22.81,0,0,1,16-.36,16.3,16.3,0,0,1,5.84,3.7,16.87,16.87,0,0,1,3.82,5.94,21.8,21.8,0,0,1,1.37,8,17.36,17.36,0,0,1-.12,2.27,3.58,3.58,0,0,1-.44,1.39,1.66,1.66,0,0,1-.85.72,4,4,0,0,1-1.37.2ZM73.92,34a10.89,10.89,0,0,0-.38-2.86,7,7,0,0,0-1.23-2.48,6.28,6.28,0,0,0-2.25-1.77,7.68,7.68,0,0,0-3.38-.68,7.37,7.37,0,0,0-5.48,2A10.45,10.45,0,0,0,58.58,34Z" transform="translate(0 -1.67)" fill="#999896"/><path d="M91.13,59.58V18.36h7.63a2.9,2.9,0,0,1,3,2.07l.68,2.23a22.78,22.78,0,0,1,2.15-2,13.78,13.78,0,0,1,2.4-1.55,13,13,0,0,1,6.06-1.41,9.68,9.68,0,0,1,6.18,1.93A12,12,0,0,1,123,24.8a12.18,12.18,0,0,1,2.52-3.26,13.58,13.58,0,0,1,3.22-2.19,15.65,15.65,0,0,1,3.66-1.23,19,19,0,0,1,3.84-.4,17.43,17.43,0,0,1,6.28,1.05,12,12,0,0,1,4.59,3.06,13.21,13.21,0,0,1,2.8,4.93,21.25,21.25,0,0,1,1,6.62V59.58H138.51V33.39q0-6.4-5.48-6.4a5.63,5.63,0,0,0-4.15,1.65,6.42,6.42,0,0,0-1.65,4.75V59.58H114.9V33.39q0-3.54-1.39-5A5.46,5.46,0,0,0,109.42,27a6.9,6.9,0,0,0-3.16.76,11.5,11.5,0,0,0-2.8,2V59.58Z" transform="translate(0 -1.67)" fill="#999896"/><path d="M158.78,59.58V18.36h7.63a2.9,2.9,0,0,1,3,2.07l.68,2.23a22.79,22.79,0,0,1,2.15-2,13.75,13.75,0,0,1,2.4-1.55,13,13,0,0,1,6.06-1.41,9.68,9.68,0,0,1,6.18,1.93,12,12,0,0,1,3.72,5.15,12.17,12.17,0,0,1,2.52-3.26,13.55,13.55,0,0,1,3.22-2.19A15.66,15.66,0,0,1,200,18.12a19,19,0,0,1,3.83-.4,17.43,17.43,0,0,1,6.28,1.05,12,12,0,0,1,4.59,3.06,13.22,13.22,0,0,1,2.8,4.93,21.28,21.28,0,0,1,1,6.62V59.58H206.16V33.39q0-6.4-5.49-6.4a5.63,5.63,0,0,0-4.15,1.65,6.43,6.43,0,0,0-1.65,4.75V59.58H182.55V33.39q0-3.54-1.39-5A5.46,5.46,0,0,0,177.06,27a6.9,6.9,0,0,0-3.16.76,11.48,11.48,0,0,0-2.8,2V59.58Z" transform="translate(0 -1.67)" fill="#999896"/><path d="M225.51,24.09a25.06,25.06,0,0,1,8.29-4.91,29.06,29.06,0,0,1,9.76-1.61,17.85,17.85,0,0,1,6.74,1.21,14.5,14.5,0,0,1,5.09,3.38,14.78,14.78,0,0,1,3.2,5.15,18.49,18.49,0,0,1,1.11,6.52V59.58h-5.64a5.77,5.77,0,0,1-2.64-.48,3.64,3.64,0,0,1-1.49-2L249,54.85q-1.55,1.31-3,2.31a18.89,18.89,0,0,1-3,1.69,14.61,14.61,0,0,1-3.26,1,20.06,20.06,0,0,1-3.83.34,16.82,16.82,0,0,1-5.13-.73A10.69,10.69,0,0,1,227,57.31a9.51,9.51,0,0,1-2.48-3.56,12.82,12.82,0,0,1-.87-4.91,10.24,10.24,0,0,1,1.11-4.51,11.13,11.13,0,0,1,3.86-4.17A24.53,24.53,0,0,1,236,37a49.62,49.62,0,0,1,11.73-1.43V33.82q0-3.62-1.49-5.23A5.48,5.48,0,0,0,242,27a11.23,11.23,0,0,0-3.58.48,16.05,16.05,0,0,0-2.48,1.07q-1.09.6-2.13,1.07a5.85,5.85,0,0,1-2.46.48,3.55,3.55,0,0,1-2.15-.64,5.52,5.52,0,0,1-1.43-1.51Zm22.18,18.72a41,41,0,0,0-6.08.64,14.76,14.76,0,0,0-3.78,1.19,4.57,4.57,0,0,0-1.93,1.63,3.86,3.86,0,0,0-.54,2,3.45,3.45,0,0,0,1.15,3,5.62,5.62,0,0,0,3.38.85,9.78,9.78,0,0,0,4.17-.83,12.72,12.72,0,0,0,3.62-2.7Z" transform="translate(0 -1.67)" fill="#999896"/></g><g opacity="0.69"><path d="M55.75,86.7H57.9a4.87,4.87,0,0,0,4.29-1.87l13-18.92a6.41,6.41,0,0,1,2.48-2.09A8.38,8.38,0,0,1,81,63.25H92.72L75.55,86.66a11.7,11.7,0,0,1-3.93,3.5,9.68,9.68,0,0,1,2.74,1.55,11.68,11.68,0,0,1,2.31,2.58l17.49,26.87h-12a10.4,10.4,0,0,1-2-.16,5,5,0,0,1-1.41-.48,4.06,4.06,0,0,1-1-.78,7.63,7.63,0,0,1-.83-1.05L63.78,98.55A4,4,0,0,0,62,97a7.85,7.85,0,0,0-3-.46H55.75v24.64H42.32V63.25H55.75Z" transform="translate(0 -1.67)" fill="#999896"/><path d="M154.32,79.95l-12.8,41.22h-10a2,2,0,0,1-1.35-.48,3.2,3.2,0,0,1-.87-1.59L123.4,98.55q-.44-1.39-.78-2.74T122,93.06q-.28,1.39-.62,2.78t-.77,2.78l-6,20.47a2.54,2.54,0,0,1-2.62,2.07h-9.54L89.7,79.95h9.86a3.8,3.8,0,0,1,2.21.62A3.07,3.07,0,0,1,103,82.09l4.13,18.48q.52,2.11.91,4.07t.72,4q.52-2,1.09-4t1.25-4.07l5.17-18.52a3.1,3.1,0,0,1,1.19-1.53,3.5,3.5,0,0,1,2.07-.62H125a3.79,3.79,0,0,1,2.21.62,3.07,3.07,0,0,1,1.21,1.53l4.93,18.52q.6,2.11,1.17,4.09t1.05,4q.32-2,.75-4t1-4.13l4.37-18.48a3.1,3.1,0,0,1,1.19-1.53,3.5,3.5,0,0,1,2.07-.62Z" transform="translate(0 -1.67)" fill="#999896"/><path d="M157.18,85.67a25.06,25.06,0,0,1,8.29-4.91,29.06,29.06,0,0,1,9.76-1.61A17.85,17.85,0,0,1,182,80.36a14.5,14.5,0,0,1,5.09,3.38,14.78,14.78,0,0,1,3.2,5.15,18.49,18.49,0,0,1,1.11,6.52v25.76h-5.64a5.76,5.76,0,0,1-2.64-.48,3.64,3.64,0,0,1-1.49-2l-.87-2.27q-1.55,1.31-3,2.31a18.89,18.89,0,0,1-3,1.69,14.63,14.63,0,0,1-3.26,1,20.1,20.1,0,0,1-3.83.34,16.81,16.81,0,0,1-5.13-.74,10.69,10.69,0,0,1-3.92-2.17,9.51,9.51,0,0,1-2.48-3.56,12.82,12.82,0,0,1-.87-4.91,10.25,10.25,0,0,1,1.11-4.51,11.13,11.13,0,0,1,3.86-4.17,24.53,24.53,0,0,1,7.39-3.16,49.62,49.62,0,0,1,11.73-1.43V95.41q0-3.62-1.49-5.23a5.48,5.48,0,0,0-4.23-1.61,11.23,11.23,0,0,0-3.58.48,16.05,16.05,0,0,0-2.48,1.07q-1.09.6-2.13,1.07a5.85,5.85,0,0,1-2.46.48,3.55,3.55,0,0,1-2.15-.64,5.52,5.52,0,0,1-1.43-1.51Zm22.18,18.72a41,41,0,0,0-6.08.64,14.72,14.72,0,0,0-3.78,1.19,4.56,4.56,0,0,0-1.93,1.63,3.86,3.86,0,0,0-.54,2,3.45,3.45,0,0,0,1.15,3,5.62,5.62,0,0,0,3.38.86,9.78,9.78,0,0,0,4.17-.83,12.72,12.72,0,0,0,3.62-2.7Z" transform="translate(0 -1.67)" fill="#999896"/><path d="M211.56,61.66V95h1.83a3.61,3.61,0,0,0,1.75-.34,4.07,4.07,0,0,0,1.19-1.13l7.79-11.61a4.38,4.38,0,0,1,4-2h11.29L228.73,94.61a13.06,13.06,0,0,1-3.58,3.26,9.86,9.86,0,0,1,1.67,1.57,16,16,0,0,1,1.43,2l11.61,19.71H228.73a5.67,5.67,0,0,1-2.38-.46,3.8,3.8,0,0,1-1.67-1.61l-7.79-14.59a3,3,0,0,0-1.15-1.29,4.15,4.15,0,0,0-1.79-.3h-2.38v18.24H199.23V61.66Z" transform="translate(0 -1.67)" fill="#999896"/></g></g></svg>